<svg version="1.1" id="Layer_1" xmlns="http://www.w3.org/2000/svg" xmlns:xlink="http://www.w3.org/1999/xlink" x="0px" y="0px"
	 width="100%" viewBox="0 0 1233 1275" enable-background="new 0 0 1233 1275" xml:space="preserve">
<path fill="#FDFDFD" opacity="1.000000" stroke="none" 
	d="
M798.000000,1276.000000 
	C532.000000,1276.000000 266.500000,1276.000000 1.000000,1276.000000 
	C1.000000,851.000000 1.000000,426.000000 1.000000,1.000000 
	C412.000000,1.000000 823.000000,1.000000 1234.000000,1.000000 
	C1234.000000,426.000000 1234.000000,851.000000 1234.000000,1276.000000 
	C1088.833374,1276.000000 943.666687,1276.000000 798.000000,1276.000000 
M1157.434326,454.575531 
	C1157.645752,454.072845 1157.857178,453.570160 1158.637451,452.749847 
	C1159.449463,451.177795 1160.261475,449.605743 1160.997681,448.022217 
	C1160.997681,448.022217 1161.061646,448.064911 1161.456055,447.792206 
	C1161.708374,447.550720 1161.806030,447.257660 1162.259521,446.471954 
	C1169.157227,434.835876 1176.055054,423.199799 1182.952881,411.563721 
	C1182.616699,411.008728 1182.280640,410.453705 1181.944580,409.898712 
	C1099.653809,409.898712 1017.363037,409.898712 934.377991,409.450592 
	C889.940002,409.360504 845.501953,409.258911 801.063965,409.248474 
	C799.982788,409.248199 798.901306,410.262329 796.994202,410.809906 
	C791.047363,411.064484 785.081848,411.116608 779.161682,411.661194 
	C776.307129,411.923767 773.537903,413.113647 770.148926,413.838318 
	C769.769348,413.904175 769.389709,413.970032 768.308838,413.907104 
	C763.495544,414.550629 758.609741,414.862213 753.881470,415.895050 
	C733.190002,420.414734 713.891296,428.602661 696.370850,440.330200 
	C685.551819,447.572021 675.839294,456.466858 665.614319,464.775360 
	C665.614319,464.775360 665.689941,464.638306 665.170532,464.796906 
	C664.990173,465.097443 664.809814,465.398010 664.756592,465.629150 
	C664.756592,465.629150 664.611816,465.624908 663.987915,465.829742 
	C652.498596,476.618500 642.352783,488.652893 635.103760,502.577209 
	C618.909363,533.684265 603.381653,565.140015 587.725098,596.524902 
	C575.768555,620.492554 564.038208,644.572998 552.172852,668.586243 
	C551.637268,669.669983 550.761597,670.585632 549.719971,672.029114 
	C548.330627,669.987549 547.283325,668.516724 546.305725,667.000854 
	C540.650940,658.232483 535.012573,649.453552 529.162659,640.758911 
	C529.162659,640.758911 529.383484,640.745361 529.319580,640.027710 
	C527.416870,636.735718 525.610474,633.383423 523.593323,630.163147 
	C517.464722,620.379333 511.254791,610.646484 505.033203,600.967773 
	C505.033203,600.967773 505.118256,600.957275 505.083984,600.229065 
	C497.197937,587.362488 489.311890,574.495850 481.020691,561.780884 
	C481.020691,561.780884 481.436646,561.662415 481.288971,560.961426 
	C480.531250,559.490173 479.854645,557.970093 479.003815,556.554810 
	C462.223297,528.641113 445.461304,500.715942 428.568176,472.870422 
	C426.807068,469.967499 424.244812,467.550568 422.017914,464.987122 
	C422.017914,464.987122 422.094299,464.945587 421.933411,464.290466 
	C420.139587,462.702332 418.345764,461.114166 416.457825,459.542511 
	C416.457825,459.542511 416.426788,459.452118 416.142456,458.884003 
	C408.505188,452.050598 399.541565,446.775726 389.501526,446.447083 
	C363.821594,445.606506 338.063416,445.211487 312.408875,446.316925 
	C298.479828,446.917114 286.716766,454.567200 277.518585,465.515076 
	C277.518585,465.515076 277.422150,465.558411 276.852356,465.837494 
	C270.232117,478.558655 263.611877,491.279846 256.760773,504.207092 
	C256.760773,504.207092 256.812714,504.512177 256.199188,504.858490 
	C237.789490,541.418762 219.319748,577.948975 200.985947,614.547241 
	C180.261261,655.918213 159.634491,697.338318 139.017746,738.763245 
	C132.870499,751.114746 126.900047,763.554260 120.299423,776.279724 
	C119.622154,777.878906 118.944893,779.478027 117.993965,781.436035 
	C117.993965,781.436035 117.944672,781.884583 117.360313,782.181458 
	C116.700958,783.803345 116.041595,785.425232 114.944839,787.580139 
	C114.802734,788.014465 114.660629,788.448853 114.002762,789.197021 
	C113.657379,790.122070 113.311996,791.047180 112.509605,792.457092 
	C106.655945,804.031189 100.799591,815.603882 94.949135,827.179565 
	C80.168045,856.425598 65.378365,885.667297 50.633724,914.931641 
	C49.564358,917.054077 48.830376,919.345459 47.662243,922.250183 
	C50.365852,922.250183 52.160347,922.249390 53.954842,922.250366 
	C82.587379,922.265076 111.219948,922.308533 139.852448,922.281738 
	C152.170990,922.270203 164.513794,922.571167 176.802246,921.916687 
	C196.206985,920.883240 212.370087,913.034851 224.140579,897.003662 
	C224.140579,897.003662 224.198044,897.234497 224.730621,897.071594 
	C224.873444,896.745972 225.016266,896.420349 225.038208,896.078369 
	C225.038208,896.078369 225.134888,896.152771 225.751419,895.910278 
	C228.163025,892.355164 230.949753,888.994995 232.918045,885.209351 
	C239.668045,872.226929 246.083206,859.070923 252.712051,846.024780 
	C278.097687,796.063599 303.521637,746.121887 328.918518,696.166382 
	C332.885498,688.363464 336.786255,680.526855 341.029846,672.084656 
	C342.550842,674.123535 343.603302,675.365234 344.471436,676.724731 
	C351.363068,687.517090 358.177673,698.358826 365.099884,709.131409 
	C370.928131,718.201477 376.869019,727.199158 382.949951,735.980591 
	C382.949951,735.980591 382.747772,736.221436 382.866058,736.916748 
	C389.397980,747.341797 395.838989,757.825195 402.482849,768.178406 
	C412.800079,784.255798 423.255463,800.244507 433.772369,816.255920 
	C433.772369,816.255920 433.687134,816.341858 433.832977,817.019592 
	C435.288940,819.444214 436.691467,821.902893 438.209229,824.288208 
	C451.705231,845.498291 465.932526,866.281250 478.577515,887.986328 
	C501.781403,927.815796 559.961914,933.762024 593.065247,906.022156 
	C604.263672,896.638123 612.715271,885.213623 619.170349,872.301392 
	C642.247620,826.139038 665.166809,779.897583 688.126709,733.676575 
	C711.757141,686.105835 735.348328,638.515503 758.997070,590.953857 
	C763.745911,581.403015 768.864380,572.080994 777.023010,564.857971 
	C779.466553,562.694702 781.770264,560.373535 784.019958,558.007080 
	C784.019958,558.007080 784.115540,558.143555 784.859253,558.106689 
	C785.747925,557.702515 786.691956,557.388184 787.517029,556.880676 
	C799.928650,549.245300 813.481750,546.540833 827.947937,546.590027 
	C898.528198,546.830322 969.109253,546.938293 1039.689941,546.877625 
	C1055.886230,546.863708 1071.257080,543.012634 1085.621460,535.164307 
	C1105.818359,524.129150 1121.196899,507.988983 1134.462402,489.634430 
	C1139.981079,481.998718 1144.795044,473.853760 1150.010254,465.972351 
	C1150.010254,465.972351 1149.941528,465.917938 1150.483398,465.597046 
	C1151.170166,464.363892 1151.857056,463.130737 1152.864258,461.475983 
	C1152.899414,461.302948 1152.934448,461.129913 1153.541016,460.623779 
	C1154.403442,459.091339 1155.265747,457.558929 1156.502563,455.705017 
	C1156.731567,455.454620 1156.876221,455.162506 1157.434326,454.575531 
M752.419922,789.619690 
	C751.725769,789.234497 751.070984,788.629089 750.331543,788.497009 
	C739.140259,786.497742 729.024353,782.199646 720.479614,774.569885 
	C718.050171,772.400574 716.799744,773.386536 715.648193,775.887817 
	C709.596191,789.033203 703.833740,802.327820 697.307922,815.235535 
	C687.109924,835.406738 676.749939,855.515320 665.746216,875.253296 
	C658.388184,888.451965 649.795105,900.962158 641.207581,914.141907 
	C639.507812,916.857483 637.807983,919.573120 635.350586,923.499146 
	C638.704956,923.499146 640.626099,923.501770 642.547302,923.498718 
	C681.524963,923.437134 720.502625,923.336243 759.480286,923.321533 
	C825.110474,923.296692 890.741211,923.486877 956.370361,923.227295 
	C974.070312,923.157288 991.619263,921.109131 1007.970215,913.323059 
	C1025.877808,904.795715 1041.127075,892.860474 1050.132935,875.082764 
	C1071.038330,833.815125 1091.044556,792.092163 1111.439575,750.565674 
	C1132.644653,707.390015 1153.883057,664.230774 1175.082764,621.052490 
	C1175.979980,619.225098 1176.635254,617.278809 1177.707397,614.638794 
	C1174.924072,614.638794 1173.118408,614.641968 1171.312866,614.638245 
	C1133.831177,614.561035 1096.349365,614.489197 1058.867676,614.403870 
	C1008.569519,614.289368 958.270386,613.936829 907.973572,614.145447 
	C884.788879,614.241577 865.486206,623.761353 849.385803,641.254700 
	C845.458313,646.609375 840.951965,651.636963 837.707581,657.377686 
	C826.156311,677.816467 815.026489,698.493530 803.772888,719.099915 
	C803.187317,720.172058 802.932190,721.424622 802.138184,723.693054 
	C857.911682,723.693054 912.856262,723.693054 968.281311,723.693054 
	C967.769043,725.303284 967.658386,725.955261 967.369385,726.515198 
	C956.910278,746.779846 946.516846,767.079651 935.806030,787.210632 
	C934.946899,788.825378 931.886902,790.126770 929.847046,790.130432 
	C874.861206,790.229309 819.875061,790.140503 764.888916,790.078552 
	C760.923706,790.074097 756.958496,790.033325 752.419922,789.619690 
z"/>
<path fill="#1565F8" opacity="1.000000" stroke="none" 
	d="
M117.944672,781.884583 
	C117.944672,781.884583 117.993965,781.436035 118.397949,781.229858 
	C119.200630,780.692261 119.599319,780.360779 120.240288,779.853577 
	C120.654251,779.118591 120.825920,778.559265 121.100128,777.745972 
	C121.445686,777.004456 121.688721,776.516846 122.241745,775.871094 
	C128.660065,763.799011 134.867065,751.934448 140.844330,739.955261 
	C145.338608,730.948242 149.417648,721.734192 153.901093,712.721497 
	C158.820236,702.833008 164.060593,693.104797 169.032181,683.241699 
	C173.622040,674.135925 177.969604,664.908142 182.554031,655.799561 
	C188.260422,644.461792 194.220184,633.250427 199.849884,621.875244 
	C205.847626,609.756470 211.435730,597.434204 217.480072,585.339417 
	C224.490417,571.311646 231.853027,557.460449 238.967300,543.483948 
	C244.362534,532.884705 249.679108,522.243591 254.861160,511.539093 
	C255.903290,509.386353 256.182007,506.864075 256.812714,504.512177 
	C256.812714,504.512177 256.760773,504.207092 257.232239,504.067963 
	C258.511871,503.174927 259.596863,502.567780 260.086060,501.644806 
	C266.026917,490.436371 271.898499,479.191010 277.703003,467.911438 
	C278.002533,467.329407 277.533417,466.351837 277.422150,465.558411 
	C277.422150,465.558411 277.518585,465.515076 277.879395,465.625427 
	C279.703125,464.771210 281.243988,463.905029 282.612183,462.820953 
	C285.203674,460.767609 287.508057,458.299072 290.262604,456.513489 
	C301.731049,449.079315 314.550232,446.852142 327.996979,446.957214 
	C344.617554,447.087067 361.240784,446.888885 377.861145,447.031464 
	C388.197632,447.120117 398.118164,448.920380 406.982361,454.864655 
	C409.861328,456.795227 413.263794,457.945129 416.426788,459.452118 
	C416.426788,459.452118 416.457825,459.542511 416.352234,459.898468 
	C418.195862,461.818146 420.145081,463.381866 422.094299,464.945557 
	C422.094299,464.945587 422.017914,464.987122 422.015076,465.333527 
	C423.728149,468.566803 425.454193,471.447723 427.158234,474.341583 
	C435.352631,488.257812 443.431946,502.243347 451.764435,516.076355 
	C459.160065,528.354126 466.762878,540.509399 474.433990,552.617493 
	C476.465637,555.824219 479.086365,558.657593 481.436646,561.662415 
	C481.436646,561.662415 481.020691,561.780884 481.089966,562.094116 
	C481.334686,563.363525 481.256531,564.471191 481.723694,565.253113 
	C488.324921,576.302612 494.959900,587.332642 501.717255,598.286865 
	C502.427521,599.438171 503.964722,600.079407 505.118256,600.957275 
	C505.118256,600.957275 505.033203,600.967773 505.019012,601.330200 
	C505.453369,603.236694 505.604401,604.957886 506.400269,606.295227 
	C510.580597,613.320068 514.763977,620.353516 519.265869,627.173035 
	C522.369629,631.874573 525.992554,636.233398 529.383484,640.745361 
	C529.383484,640.745361 529.162659,640.758911 529.152893,641.103882 
	C529.561707,642.851562 529.698242,644.429565 530.444031,645.628784 
	C535.759644,654.176331 541.196106,662.648804 546.601562,671.140381 
	C548.774963,674.554626 550.972961,674.691956 552.847900,671.126404 
	C555.899902,665.322388 558.433533,659.247559 561.430664,653.412720 
	C567.674438,641.257385 574.163940,629.228088 580.390869,617.064331 
	C585.944824,606.214905 591.332092,595.279053 596.703064,584.337280 
	C607.543091,562.254028 618.371155,540.164612 629.110779,518.032410 
	C637.768921,500.189758 648.609009,483.899963 662.610046,469.767273 
	C663.630920,468.736816 663.960693,467.021698 664.611816,465.624878 
	C664.611816,465.624908 664.756592,465.629150 664.999023,465.652527 
	C665.390869,465.330017 665.540405,464.984161 665.689941,464.638306 
	C665.689941,464.638306 665.614319,464.775360 665.986755,464.798096 
	C666.970032,464.608032 667.747131,464.566223 668.167542,464.157532 
	C680.491638,452.178436 694.623779,442.773895 709.749939,434.756653 
	C723.922424,427.244812 738.688538,421.354553 754.394958,417.886292 
	C759.310425,416.800873 764.140808,415.330231 769.010132,414.035889 
	C769.389709,413.970032 769.769348,413.904175 770.910645,413.899109 
	C784.647034,413.001129 797.607910,411.618073 810.600037,411.195343 
	C825.503479,410.710388 840.434692,411.079987 855.353821,411.070465 
	C857.575745,411.069061 859.797607,411.024384 862.259583,411.043182 
	C862.499634,411.086609 862.978394,411.180511 863.313110,411.424622 
	C865.632935,411.772644 867.617981,411.967163 869.603088,411.967468 
	C970.698364,411.982544 1071.793701,411.981110 1172.888916,411.981415 
	C1174.767700,411.981415 1176.646484,411.981415 1179.653076,411.981415 
	C1177.859131,415.454376 1176.758301,417.804291 1175.467773,420.044830 
	C1170.858887,428.045868 1166.161621,435.996094 1161.573364,444.008759 
	C1161.108398,444.820801 1161.152710,445.924469 1160.958008,447.188263 
	C1160.990723,447.677429 1161.026123,447.871155 1161.061646,448.064911 
	C1161.061646,448.064911 1160.997681,448.022217 1160.723633,448.139465 
	C1159.340820,449.541412 1158.231934,450.826141 1156.891968,452.190094 
	C1156.379272,452.453125 1156.178467,452.701996 1155.784668,453.212585 
	C1155.337402,454.276367 1155.163818,455.143555 1154.851685,456.317932 
	C1154.131836,458.069061 1153.550659,459.513000 1152.969360,460.956909 
	C1152.934448,461.129913 1152.899414,461.302948 1152.449341,461.685425 
	C1151.697754,461.938354 1151.361084,461.981842 1150.873901,461.866211 
	C1150.504150,462.151794 1150.285034,462.596466 1150.043091,463.400726 
	C1149.994141,464.479553 1149.967773,465.198730 1149.941528,465.917938 
	C1149.941528,465.917938 1150.010254,465.972351 1149.703125,465.857300 
	C1148.578247,466.394440 1147.555054,466.901459 1146.974854,467.721771 
	C1141.909546,474.882111 1136.988037,482.144440 1131.899780,489.288147 
	C1123.029297,501.741669 1113.104004,513.234680 1100.945679,522.646057 
	C1081.853149,537.424927 1060.458374,545.193359 1036.091187,545.121887 
	C967.467163,544.920532 898.842102,545.089417 830.217712,544.954834 
	C819.524353,544.933899 808.825989,544.780701 798.898621,549.192627 
	C793.676392,551.513489 789.024780,555.118469 784.115540,558.143555 
	C784.115540,558.143555 784.019958,558.007080 783.709839,558.038513 
	C782.539612,558.476990 781.614807,558.786194 780.829224,559.305847 
	C769.797913,566.603516 763.365601,577.551880 757.638367,588.965515 
	C751.302124,601.592834 745.283813,614.379333 739.040405,627.053833 
	C733.375122,638.554749 727.565918,649.984619 721.873535,661.472290 
	C718.661011,667.955383 715.663757,674.546692 712.374329,680.989563 
	C708.775024,688.039673 704.778870,694.889709 701.266663,701.980957 
	C696.567566,711.468445 692.264709,721.151611 687.614441,730.664062 
	C681.733276,742.693970 675.644714,754.622314 669.698669,766.620667 
	C662.119568,781.914246 654.699158,797.287292 647.016479,812.528381 
	C638.539551,829.345032 629.338928,845.816345 621.397339,862.877380 
	C614.710022,877.244019 606.951538,890.529663 595.260803,901.461243 
	C587.094055,909.097595 577.640320,914.395386 567.224243,917.714722 
	C551.848999,922.614319 536.095154,922.855286 520.678101,917.919189 
	C506.770294,913.466248 494.013092,906.653137 485.564117,894.163452 
	C476.867584,881.307922 468.796356,868.030518 460.397186,854.972595 
	C452.345032,842.454224 444.240967,829.969055 436.081207,817.520813 
	C435.661194,816.880066 434.502106,816.723755 433.687134,816.341919 
	C433.687134,816.341858 433.772369,816.255920 433.812866,815.880493 
	C433.311584,813.976196 433.036682,812.276306 432.184448,810.946472 
	C426.920776,802.732849 421.419189,794.670959 416.201080,786.429199 
	C407.642761,772.911743 399.340027,759.231689 390.703705,745.764954 
	C388.485291,742.305725 385.422607,739.387939 382.747772,736.221436 
	C382.747772,736.221436 382.949951,735.980591 382.938629,735.721191 
	C382.057007,733.535156 381.389038,731.482971 380.283691,729.702332 
	C372.867554,717.755188 365.399933,705.839478 357.864136,693.967529 
	C353.257172,686.709778 348.537781,679.522278 343.781586,672.361145 
	C342.586121,670.561279 341.085449,668.316467 339.076233,671.680359 
	C337.042725,675.084839 334.988220,678.491455 333.212708,682.032471 
	C327.698547,693.029968 322.385773,704.128601 316.860962,715.120667 
	C306.383362,735.966553 295.863678,756.791687 285.266907,777.577271 
	C273.669769,800.324890 262.003601,823.037476 250.295090,845.728027 
	C242.103882,861.602112 233.778030,877.406677 225.569824,893.272034 
	C225.147293,894.088684 225.267395,895.186096 225.134888,896.152771 
	C225.134888,896.152771 225.038208,896.078369 224.836884,896.174622 
	C224.489731,896.592102 224.343887,896.913269 224.198044,897.234497 
	C224.198044,897.234497 224.140579,897.003662 223.828552,897.069336 
	C221.974106,898.335449 220.286865,899.390259 218.911804,900.758728 
	C205.944351,913.663940 190.399673,920.119507 172.052795,920.077820 
	C133.722992,919.990723 95.392838,920.052002 57.062836,920.035339 
	C55.178928,920.034485 53.295094,919.871094 50.698666,919.750183 
	C54.647667,911.541748 58.128601,904.121338 61.767860,896.779480 
	C69.677292,880.823059 77.604950,864.875000 85.645355,848.984314 
	C91.688980,837.039917 98.035332,825.248047 104.021660,813.275574 
	C107.326416,806.666138 110.166954,799.824524 113.508568,793.003662 
	C114.187225,792.269348 114.574120,791.619019 115.062180,790.725403 
	C115.406235,790.015991 115.649109,789.549805 116.154205,788.900696 
	C116.585091,788.123718 116.753754,787.529785 116.982841,786.568787 
	C117.343727,784.762695 117.644196,783.323669 117.944672,781.884583 
z"/>
<path fill="#3E78E1" opacity="1.000000" stroke="none" 
	d="
M850.007446,641.011230 
	C865.486206,623.761353 884.788879,614.241577 907.973572,614.145447 
	C958.270386,613.936829 1008.569519,614.289368 1058.867676,614.403870 
	C1096.349365,614.489197 1133.831177,614.561035 1171.312866,614.638245 
	C1173.118408,614.641968 1174.924072,614.638794 1177.707397,614.638794 
	C1176.635254,617.278809 1175.979980,619.225098 1175.082764,621.052490 
	C1153.883057,664.230774 1132.644653,707.390015 1111.439575,750.565674 
	C1091.044556,792.092163 1071.038330,833.815125 1050.132935,875.082764 
	C1041.127075,892.860474 1025.877808,904.795715 1007.970215,913.323059 
	C991.619263,921.109131 974.070312,923.157288 956.370361,923.227295 
	C890.741211,923.486877 825.110474,923.296692 759.480286,923.321533 
	C720.502625,923.336243 681.524963,923.437134 642.547302,923.498718 
	C640.626099,923.501770 638.704956,923.499146 635.350586,923.499146 
	C637.807983,919.573120 639.507812,916.857483 641.582153,914.052612 
	C641.956726,913.963318 642.156250,914.148865 642.092590,914.520020 
	C641.341431,917.012085 640.653992,919.132996 639.717957,922.020752 
	C642.961060,922.020752 645.420105,922.020813 647.879150,922.020752 
	C720.294495,922.018311 792.710571,922.204163 865.124939,921.935852 
	C902.637573,921.796814 940.240784,923.979980 977.624573,919.763550 
	C988.142517,918.577271 998.711914,915.225525 1008.505493,911.086914 
	C1016.057983,907.895325 1022.875793,902.436646 1029.205200,897.031494 
	C1035.229004,891.887329 1041.401978,886.219055 1045.367554,879.514465 
	C1052.737549,867.054321 1058.617920,853.706055 1064.986450,840.663147 
	C1069.481567,831.457214 1073.599854,822.065735 1078.169800,812.898376 
	C1085.468018,798.258362 1093.105469,783.787537 1100.407104,769.149170 
	C1107.898560,754.130249 1115.150146,738.991760 1122.522583,723.913330 
	C1129.855225,708.916199 1137.240845,693.944885 1144.541382,678.932251 
	C1150.750610,666.164185 1156.835449,653.335632 1163.045654,640.568054 
	C1166.710571,633.033447 1170.512329,625.565430 1174.716187,617.137939 
	C1170.923218,616.665222 1168.204224,616.032166 1165.484741,616.030151 
	C1078.494629,615.966064 991.504517,615.919800 904.514526,615.996643 
	C891.199402,616.008362 879.291931,620.992676 868.322754,628.131592 
	C862.096191,632.183960 856.286133,636.876221 850.218506,641.212708 
	C850.148438,641.145203 850.007446,641.011230 850.007446,641.011230 
z"/>
<path fill="#3F7AE7" opacity="1.000000" stroke="none" 
	d="
M433.760040,816.680786 
	C434.502106,816.723755 435.661194,816.880066 436.081207,817.520813 
	C444.240967,829.969055 452.345032,842.454224 460.397186,854.972595 
	C468.796356,868.030518 476.867584,881.307922 485.564117,894.163452 
	C494.013092,906.653137 506.770294,913.466248 520.678101,917.919189 
	C536.095154,922.855286 551.848999,922.614319 567.224243,917.714722 
	C577.640320,914.395386 587.094055,909.097595 595.260803,901.461243 
	C606.951538,890.529663 614.710022,877.244019 621.397339,862.877380 
	C629.338928,845.816345 638.539551,829.345032 647.016479,812.528381 
	C654.699158,797.287292 662.119568,781.914246 669.698669,766.620667 
	C675.644714,754.622314 681.733276,742.693970 687.614441,730.664062 
	C692.264709,721.151611 696.567566,711.468445 701.266663,701.980957 
	C704.778870,694.889709 708.775024,688.039673 712.374329,680.989563 
	C715.663757,674.546692 718.661011,667.955383 721.873535,661.472290 
	C727.565918,649.984619 733.375122,638.554749 739.040405,627.053833 
	C745.283813,614.379333 751.302124,601.592834 757.638367,588.965515 
	C763.365601,577.551880 769.797913,566.603516 780.829224,559.305847 
	C781.614807,558.786194 782.539612,558.476990 783.768921,558.097290 
	C781.770264,560.373535 779.466553,562.694702 777.023010,564.857971 
	C768.864380,572.080994 763.745911,581.403015 758.997070,590.953857 
	C735.348328,638.515503 711.757141,686.105835 688.126709,733.676575 
	C665.166809,779.897583 642.247620,826.139038 619.170349,872.301392 
	C612.715271,885.213623 604.263672,896.638123 593.065247,906.022156 
	C559.961914,933.762024 501.781403,927.815796 478.577515,887.986328 
	C465.932526,866.281250 451.705231,845.498291 438.209229,824.288208 
	C436.691467,821.902893 435.288940,819.444214 433.760040,816.680786 
z"/>
<path fill="#3E78E1" opacity="1.000000" stroke="none" 
	d="
M752.993286,790.009521 
	C756.958496,790.033325 760.923706,790.074097 764.888916,790.078552 
	C819.875061,790.140503 874.861206,790.229309 929.847046,790.130432 
	C931.886902,790.126770 934.946899,788.825378 935.806030,787.210632 
	C946.516846,767.079651 956.910278,746.779846 967.369385,726.515198 
	C967.658386,725.955261 967.769043,725.303284 968.281311,723.693054 
	C912.856262,723.693054 857.911682,723.693054 802.138184,723.693054 
	C802.932190,721.424622 803.187317,720.172058 803.772888,719.099915 
	C815.026489,698.493530 826.156311,677.816467 837.707581,657.377686 
	C840.951965,651.636963 845.458313,646.609375 849.696655,641.132935 
	C850.007446,641.011230 850.148438,641.145203 850.112671,641.542908 
	C846.825073,646.708496 843.204468,651.269287 840.389648,656.282471 
	C831.426758,672.245117 822.760315,688.374329 813.986816,704.443237 
	C810.963806,709.979919 807.962952,715.528748 804.424316,722.043335 
	C807.564514,722.043335 809.669495,722.043335 811.774475,722.043274 
	C862.592957,722.041809 913.411438,722.035522 964.229919,722.045166 
	C970.333618,722.046326 971.233826,723.413513 968.550598,728.756958 
	C965.048950,735.730286 961.477844,742.669800 957.850159,749.578491 
	C951.459106,761.749756 944.845337,773.807617 938.673584,786.088257 
	C936.928955,789.559692 935.865723,792.115479 931.013672,792.097168 
	C875.197449,791.886230 819.380127,791.981934 763.563293,791.870667 
	C759.984314,791.863525 756.407410,790.822693 752.870483,790.199524 
	C752.911499,790.136230 752.993286,790.009521 752.993286,790.009521 
z"/>
<path fill="#3F7AE7" opacity="1.000000" stroke="none" 
	d="
M784.487427,558.125122 
	C789.024780,555.118469 793.676392,551.513489 798.898621,549.192627 
	C808.825989,544.780701 819.524353,544.933899 830.217712,544.954834 
	C898.842102,545.089417 967.467163,544.920532 1036.091187,545.121887 
	C1060.458374,545.193359 1081.853149,537.424927 1100.945679,522.646057 
	C1113.104004,513.234680 1123.029297,501.741669 1131.899780,489.288147 
	C1136.988037,482.144440 1141.909546,474.882111 1146.974854,467.721771 
	C1147.555054,466.901459 1148.578247,466.394440 1149.662720,465.841278 
	C1144.795044,473.853760 1139.981079,481.998718 1134.462402,489.634430 
	C1121.196899,507.988983 1105.818359,524.129150 1085.621460,535.164307 
	C1071.257080,543.012634 1055.886230,546.863708 1039.689941,546.877625 
	C969.109253,546.938293 898.528198,546.830322 827.947937,546.590027 
	C813.481750,546.540833 799.928650,549.245300 787.517029,556.880676 
	C786.691956,557.388184 785.747925,557.702515 784.487427,558.125122 
z"/>
<path fill="#3F7AE7" opacity="1.000000" stroke="none" 
	d="
M113.216797,793.087585 
	C110.166954,799.824524 107.326416,806.666138 104.021660,813.275574 
	C98.035332,825.248047 91.688980,837.039917 85.645355,848.984314 
	C77.604950,864.875000 69.677292,880.823059 61.767860,896.779480 
	C58.128601,904.121338 54.647667,911.541748 50.698666,919.750183 
	C53.295094,919.871094 55.178928,920.034485 57.062836,920.035339 
	C95.392838,920.052002 133.722992,919.990723 172.052795,920.077820 
	C190.399673,920.119507 205.944351,913.663940 218.911804,900.758728 
	C220.286865,899.390259 221.974106,898.335449 223.874634,897.179077 
	C212.370087,913.034851 196.206985,920.883240 176.802246,921.916687 
	C164.513794,922.571167 152.170990,922.270203 139.852448,922.281738 
	C111.219948,922.308533 82.587379,922.265076 53.954842,922.250366 
	C52.160347,922.249390 50.365852,922.250183 47.662243,922.250183 
	C48.830376,919.345459 49.564358,917.054077 50.633724,914.931641 
	C65.378365,885.667297 80.168045,856.425598 94.949135,827.179565 
	C100.799591,815.603882 106.655945,804.031189 112.800934,792.260986 
	C113.092262,792.064941 113.218407,792.156921 113.192360,792.389526 
	C113.166313,792.622192 113.216797,793.087585 113.216797,793.087585 
z"/>
<path fill="#3F7AE7" opacity="1.000000" stroke="none" 
	d="
M225.443146,896.031494 
	C225.267395,895.186096 225.147293,894.088684 225.569824,893.272034 
	C233.778030,877.406677 242.103882,861.602112 250.295090,845.728027 
	C262.003601,823.037476 273.669769,800.324890 285.266907,777.577271 
	C295.863678,756.791687 306.383362,735.966553 316.860962,715.120667 
	C322.385773,704.128601 327.698547,693.029968 333.212708,682.032471 
	C334.988220,678.491455 337.042725,675.084839 339.076233,671.680359 
	C341.085449,668.316467 342.586121,670.561279 343.781586,672.361145 
	C348.537781,679.522278 353.257172,686.709778 357.864136,693.967529 
	C365.399933,705.839478 372.867554,717.755188 380.283691,729.702332 
	C381.389038,731.482971 382.057007,733.535156 382.843689,735.845337 
	C376.869019,727.199158 370.928131,718.201477 365.099884,709.131409 
	C358.177673,698.358826 351.363068,687.517090 344.471436,676.724731 
	C343.603302,675.365234 342.550842,674.123535 341.029846,672.084656 
	C336.786255,680.526855 332.885498,688.363464 328.918518,696.166382 
	C303.521637,746.121887 278.097687,796.063599 252.712051,846.024780 
	C246.083206,859.070923 239.668045,872.226929 232.918045,885.209351 
	C230.949753,888.994995 228.163025,892.355164 225.443146,896.031494 
z"/>
<path fill="#266BDF" opacity="1.000000" stroke="none" 
	d="
M1160.960693,446.892822 
	C1161.152710,445.924469 1161.108398,444.820801 1161.573364,444.008759 
	C1166.161621,435.996094 1170.858887,428.045868 1175.467773,420.044830 
	C1176.758301,417.804291 1177.859131,415.454376 1179.653076,411.981415 
	C1176.646484,411.981415 1174.767700,411.981415 1172.888916,411.981415 
	C1071.793701,411.981110 970.698364,411.982544 869.603088,411.967468 
	C867.617981,411.967163 865.632935,411.772644 863.753418,411.376770 
	C869.971252,410.783417 876.081177,410.286560 882.195984,410.217621 
	C899.820312,410.018829 917.446716,409.992676 935.072266,409.898712 
	C1017.363037,409.898712 1099.653809,409.898712 1181.944580,409.898712 
	C1182.280640,410.453705 1182.616699,411.008728 1182.952881,411.563721 
	C1176.055054,423.199799 1169.157227,434.835876 1161.807129,446.688721 
	C1161.354858,446.905487 1160.960693,446.892822 1160.960693,446.892822 
z"/>
<path fill="#266BDF" opacity="1.000000" stroke="none" 
	d="
M256.505951,504.685333 
	C256.182007,506.864075 255.903290,509.386353 254.861160,511.539093 
	C249.679108,522.243591 244.362534,532.884705 238.967300,543.483948 
	C231.853027,557.460449 224.490417,571.311646 217.480072,585.339417 
	C211.435730,597.434204 205.847626,609.756470 199.849884,621.875244 
	C194.220184,633.250427 188.260422,644.461792 182.554031,655.799561 
	C177.969604,664.908142 173.622040,674.135925 169.032181,683.241699 
	C164.060593,693.104797 158.820236,702.833008 153.901093,712.721497 
	C149.417648,721.734192 145.338608,730.948242 140.844330,739.955261 
	C134.867065,751.934448 128.660065,763.799011 121.971436,775.851074 
	C121.210281,775.977356 121.029434,775.965393 120.848595,775.953491 
	C126.900047,763.554260 132.870499,751.114746 139.017746,738.763245 
	C159.634491,697.338318 180.261261,655.918213 200.985947,614.547241 
	C219.319748,577.948975 237.789490,541.418762 256.505951,504.685333 
z"/>
<path fill="#266BDF" opacity="1.000000" stroke="none" 
	d="
M664.299805,465.727295 
	C663.960693,467.021698 663.630920,468.736816 662.610046,469.767273 
	C648.609009,483.899963 637.768921,500.189758 629.110779,518.032410 
	C618.371155,540.164612 607.543091,562.254028 596.703064,584.337280 
	C591.332092,595.279053 585.944824,606.214905 580.390869,617.064331 
	C574.163940,629.228088 567.674438,641.257385 561.430664,653.412720 
	C558.433533,659.247559 555.899902,665.322388 552.847900,671.126404 
	C550.972961,674.691956 548.774963,674.554626 546.601562,671.140381 
	C541.196106,662.648804 535.759644,654.176331 530.444031,645.628784 
	C529.698242,644.429565 529.561707,642.851562 529.255859,641.063477 
	C535.012573,649.453552 540.650940,658.232483 546.305725,667.000854 
	C547.283325,668.516724 548.330627,669.987549 549.719971,672.029114 
	C550.761597,670.585632 551.637268,669.669983 552.172852,668.586243 
	C564.038208,644.572998 575.768555,620.492554 587.725098,596.524902 
	C603.381653,565.140015 618.909363,533.684265 635.103760,502.577209 
	C642.352783,488.652893 652.498596,476.618500 664.299805,465.727295 
z"/>
<path fill="#3E78E1" opacity="1.000000" stroke="none" 
	d="
M641.855713,913.871887 
	C649.795105,900.962158 658.388184,888.451965 665.746216,875.253296 
	C676.749939,855.515320 687.109924,835.406738 697.307922,815.235535 
	C703.833740,802.327820 709.596191,789.033203 715.648193,775.887817 
	C716.799744,773.386536 718.050171,772.400574 720.479614,774.569885 
	C729.024353,782.199646 739.140259,786.497742 750.331543,788.497009 
	C751.070984,788.629089 751.725769,789.234497 752.706604,789.814575 
	C752.993286,790.009521 752.911499,790.136230 752.446167,790.133972 
	C739.253418,789.400269 728.593384,783.683594 718.345581,775.397400 
	C715.529358,781.310913 713.016541,786.617920 710.477844,791.912415 
	C703.701477,806.044495 697.258240,820.349854 690.043945,834.255066 
	C681.005615,851.675964 671.527039,868.877991 661.845093,885.951355 
	C657.211426,894.122559 651.730896,901.819702 646.495361,909.638672 
	C645.352539,911.345337 643.618225,912.655884 642.156250,914.148865 
	C642.156250,914.148865 641.956726,913.963318 641.855713,913.871887 
z"/>
<path fill="#266BDF" opacity="1.000000" stroke="none" 
	d="
M416.284607,459.168060 
	C413.263794,457.945129 409.861328,456.795227 406.982361,454.864655 
	C398.118164,448.920380 388.197632,447.120117 377.861145,447.031464 
	C361.240784,446.888885 344.617554,447.087067 327.996979,446.957214 
	C314.550232,446.852142 301.731049,449.079315 290.262604,456.513489 
	C287.508057,458.299072 285.203674,460.767609 282.612183,462.820953 
	C281.243988,463.905029 279.703125,464.771210 277.883850,465.572754 
	C286.716766,454.567200 298.479828,446.917114 312.408875,446.316925 
	C338.063416,445.211487 363.821594,445.606506 389.501526,446.447083 
	C399.541565,446.775726 408.505188,452.050598 416.284607,459.168060 
z"/>
<path fill="#266BDF" opacity="1.000000" stroke="none" 
	d="
M481.362793,561.311890 
	C479.086365,558.657593 476.465637,555.824219 474.433990,552.617493 
	C466.762878,540.509399 459.160065,528.354126 451.764435,516.076355 
	C443.431946,502.243347 435.352631,488.257812 427.158234,474.341583 
	C425.454193,471.447723 423.728149,468.566803 422.033264,465.294037 
	C424.244812,467.550568 426.807068,469.967499 428.568176,472.870422 
	C445.461304,500.715942 462.223297,528.641113 479.003815,556.554810 
	C479.854645,557.970093 480.531250,559.490173 481.362793,561.311890 
z"/>
<path fill="#266BDF" opacity="1.000000" stroke="none" 
	d="
M768.659485,413.971497 
	C764.140808,415.330231 759.310425,416.800873 754.394958,417.886292 
	C738.688538,421.354553 723.922424,427.244812 709.749939,434.756653 
	C694.623779,442.773895 680.491638,452.178436 668.167542,464.157532 
	C667.747131,464.566223 666.970032,464.608032 665.994629,464.720215 
	C675.839294,456.466858 685.551819,447.572021 696.370850,440.330200 
	C713.891296,428.602661 733.190002,420.414734 753.881470,415.895050 
	C758.609741,414.862213 763.495544,414.550629 768.659485,413.971497 
z"/>
<path fill="#3F7AE7" opacity="1.000000" stroke="none" 
	d="
M382.806915,736.569092 
	C385.422607,739.387939 388.485291,742.305725 390.703705,745.764954 
	C399.340027,759.231689 407.642761,772.911743 416.201080,786.429199 
	C421.419189,794.670959 426.920776,802.732849 432.184448,810.946472 
	C433.036682,812.276306 433.311584,813.976196 433.752808,815.887939 
	C423.255463,800.244507 412.800079,784.255798 402.482849,768.178406 
	C395.838989,757.825195 389.397980,747.341797 382.806915,736.569092 
z"/>
<path fill="#7BACFD" opacity="1.000000" stroke="none" 
	d="
M934.725098,409.674652 
	C917.446716,409.992676 899.820312,410.018829 882.195984,410.217621 
	C876.081177,410.286560 869.971252,410.783417 863.418701,411.132690 
	C862.978394,411.180511 862.499634,411.086609 861.965454,410.744324 
	C851.637573,410.256714 841.842590,409.938202 832.050598,410.011322 
	C820.639038,410.096558 809.230103,410.524261 797.820007,410.803345 
	C798.901306,410.262329 799.982788,409.248199 801.063965,409.248474 
	C845.501953,409.258911 889.940002,409.360504 934.725098,409.674652 
z"/>
<path fill="#266BDF" opacity="1.000000" stroke="none" 
	d="
M797.407104,410.806641 
	C809.230103,410.524261 820.639038,410.096558 832.050598,410.011322 
	C841.842590,409.938202 851.637573,410.256714 861.725342,410.700897 
	C859.797607,411.024384 857.575745,411.069061 855.353821,411.070465 
	C840.434692,411.079987 825.503479,410.710388 810.600037,411.195343 
	C797.607910,411.618073 784.647034,413.001129 771.201172,413.921753 
	C773.537903,413.113647 776.307129,411.923767 779.161682,411.661194 
	C785.081848,411.116608 791.047363,411.064484 797.407104,410.806641 
z"/>
<path fill="#266BDF" opacity="1.000000" stroke="none" 
	d="
M529.351562,640.386536 
	C525.992554,636.233398 522.369629,631.874573 519.265869,627.173035 
	C514.763977,620.353516 510.580597,613.320068 506.400269,606.295227 
	C505.604401,604.957886 505.453369,603.236694 505.040649,601.293213 
	C511.254791,610.646484 517.464722,620.379333 523.593323,630.163147 
	C525.610474,633.383423 527.416870,636.735718 529.351562,640.386536 
z"/>
<path fill="#266BDF" opacity="1.000000" stroke="none" 
	d="
M505.101135,600.593140 
	C503.964722,600.079407 502.427521,599.438171 501.717255,598.286865 
	C494.959900,587.332642 488.324921,576.302612 481.723694,565.253113 
	C481.256531,564.471191 481.334686,563.363525 481.292542,562.018311 
	C489.311890,574.495850 497.197937,587.362488 505.101135,600.593140 
z"/>
<path fill="#266BDF" opacity="1.000000" stroke="none" 
	d="
M277.137268,465.697937 
	C277.533417,466.351837 278.002533,467.329407 277.703003,467.911438 
	C271.898499,479.191010 266.026917,490.436371 260.086060,501.644806 
	C259.596863,502.567780 258.511871,503.174927 257.347687,503.964905 
	C263.611877,491.279846 270.232117,478.558655 277.137268,465.697937 
z"/>
<path fill="#266BDF" opacity="1.000000" stroke="none" 
	d="
M422.013855,464.618011 
	C420.145081,463.381866 418.195862,461.818146 416.399292,459.890198 
	C418.345764,461.114166 420.139587,462.702332 422.013855,464.618011 
z"/>
<path fill="#3F7AE7" opacity="1.000000" stroke="none" 
	d="
M1157.123169,452.110840 
	C1158.231934,450.826141 1159.340820,449.541412 1160.761597,448.145172 
	C1160.261475,449.605743 1159.449463,451.177795 1158.218018,452.774719 
	C1157.798462,452.799591 1157.528687,452.531555 1157.568359,452.515686 
	C1157.607910,452.499786 1157.685181,452.579803 1157.545166,452.461945 
	C1157.405273,452.344086 1157.123169,452.110840 1157.123169,452.110840 
z"/>
<path fill="#3F7AE7" opacity="1.000000" stroke="none" 
	d="
M120.574005,776.116577 
	C121.029434,775.965393 121.210281,775.977356 121.661438,776.009277 
	C121.688721,776.516846 121.445686,777.004456 120.858047,777.919922 
	C120.341637,778.908325 120.169838,779.468811 119.998016,780.029297 
	C119.599319,780.360779 119.200630,780.692261 118.534782,781.050476 
	C118.944893,779.478027 119.622154,777.878906 120.574005,776.116577 
z"/>
<path fill="#3F7AE7" opacity="1.000000" stroke="none" 
	d="
M117.652489,782.033020 
	C117.644196,783.323669 117.343727,784.762695 116.727295,786.593872 
	C116.068306,787.006348 115.725273,787.026733 115.382233,787.047119 
	C116.041595,785.425232 116.700958,783.803345 117.652489,782.033020 
z"/>
<path fill="#3F7AE7" opacity="1.000000" stroke="none" 
	d="
M1153.255127,460.790344 
	C1153.550659,459.513000 1154.131836,458.069061 1155.136353,456.312317 
	C1155.749023,456.008423 1155.938477,456.017426 1156.128052,456.026489 
	C1155.265747,457.558929 1154.403442,459.091339 1153.255127,460.790344 
z"/>
<path fill="#3F7AE7" opacity="1.000000" stroke="none" 
	d="
M1150.212402,465.757507 
	C1149.967773,465.198730 1149.994141,464.479553 1150.251465,463.283020 
	C1150.738770,462.598083 1150.919312,462.337952 1151.024414,462.025330 
	C1151.361084,461.981842 1151.697754,461.938354 1152.289062,461.896240 
	C1151.857056,463.130737 1151.170166,464.363892 1150.212402,465.757507 
z"/>
<path fill="#3F7AE7" opacity="1.000000" stroke="none" 
	d="
M115.891983,789.083679 
	C115.649109,789.549805 115.406235,790.015991 114.822441,790.838440 
	C114.060478,791.515442 113.639435,791.836182 113.218399,792.156921 
	C113.218407,792.156921 113.092262,792.064941 113.029434,792.018555 
	C113.311996,791.047180 113.657379,790.122070 114.605209,789.083618 
	C115.435768,789.008057 115.663872,789.045898 115.891983,789.083679 
z"/>
<path fill="#3F7AE7" opacity="1.000000" stroke="none" 
	d="
M1156.058350,453.015991 
	C1156.178467,452.701996 1156.379272,452.453125 1156.891968,452.190094 
	C1157.123169,452.110840 1157.405273,452.344086 1157.503662,452.475464 
	C1157.601929,452.606873 1157.528687,452.531555 1157.528687,452.531555 
	C1157.528687,452.531555 1157.798462,452.799591 1157.933594,452.933533 
	C1157.857178,453.570160 1157.645752,454.072845 1157.076660,454.474609 
	C1156.498779,453.921143 1156.278564,453.468567 1156.058350,453.015991 
z"/>
<path fill="#266BDF" opacity="1.000000" stroke="none" 
	d="
M1155.784668,453.212585 
	C1156.278564,453.468567 1156.498779,453.921143 1156.827881,454.601196 
	C1156.876221,455.162506 1156.731567,455.454620 1156.315308,455.865723 
	C1155.938477,456.017426 1155.749023,456.008423 1155.274902,456.005096 
	C1155.163818,455.143555 1155.337402,454.276367 1155.784668,453.212585 
z"/>
<path fill="#266BDF" opacity="1.000000" stroke="none" 
	d="
M116.154205,788.900696 
	C115.663872,789.045898 115.435768,789.008057 114.863098,788.926758 
	C114.660629,788.448853 114.802734,788.014465 115.163544,787.313599 
	C115.725273,787.026733 116.068306,787.006348 116.666878,786.960876 
	C116.753754,787.529785 116.585091,788.123718 116.154205,788.900696 
z"/>
<path fill="#3F7AE7" opacity="1.000000" stroke="none" 
	d="
M1160.958008,447.188263 
	C1160.960693,446.892822 1161.354858,446.905487 1161.552002,446.909271 
	C1161.806030,447.257660 1161.708374,447.550720 1161.258789,447.928558 
	C1161.026123,447.871155 1160.990723,447.677429 1160.958008,447.188263 
z"/>
<path fill="#3F7AE7" opacity="1.000000" stroke="none" 
	d="
M224.464325,897.153076 
	C224.343887,896.913269 224.489731,896.592102 224.897339,896.182800 
	C225.016266,896.420349 224.873444,896.745972 224.464325,897.153076 
z"/>
<path fill="#266BDF" opacity="1.000000" stroke="none" 
	d="
M665.430237,464.717590 
	C665.540405,464.984161 665.390869,465.330017 664.935425,465.687225 
	C664.809814,465.398010 664.990173,465.097443 665.430237,464.717590 
z"/>
<path fill="#266BDF" opacity="1.000000" stroke="none" 
	d="
M113.192352,792.389526 
	C113.639435,791.836182 114.060478,791.515442 114.721268,791.081726 
	C114.574120,791.619019 114.187225,792.269348 113.508568,793.003662 
	C113.216797,793.087585 113.166313,792.622192 113.192352,792.389526 
z"/>
<path fill="#266BDF" opacity="1.000000" stroke="none" 
	d="
M1150.873901,461.866211 
	C1150.919312,462.337952 1150.738770,462.598083 1150.274170,462.923401 
	C1150.285034,462.596466 1150.504150,462.151794 1150.873901,461.866211 
z"/>
<path fill="#266BDF" opacity="1.000000" stroke="none" 
	d="
M120.240311,779.853577 
	C120.169838,779.468811 120.341637,778.908325 120.755508,778.173950 
	C120.825920,778.559265 120.654251,779.118591 120.240311,779.853577 
z"/>
<path fill="#1565F8" opacity="1.000000" stroke="none" 
	d="
M642.092590,914.520020 
	C643.618225,912.655884 645.352539,911.345337 646.495361,909.638672 
	C651.730896,901.819702 657.211426,894.122559 661.845093,885.951355 
	C671.527039,868.877991 681.005615,851.675964 690.043945,834.255066 
	C697.258240,820.349854 703.701477,806.044495 710.477844,791.912415 
	C713.016541,786.617920 715.529358,781.310913 718.345581,775.397400 
	C728.593384,783.683594 739.253418,789.400269 752.405151,790.197266 
	C756.407410,790.822693 759.984314,791.863525 763.563293,791.870667 
	C819.380127,791.981934 875.197449,791.886230 931.013672,792.097168 
	C935.865723,792.115479 936.928955,789.559692 938.673584,786.088257 
	C944.845337,773.807617 951.459106,761.749756 957.850159,749.578491 
	C961.477844,742.669800 965.048950,735.730286 968.550598,728.756958 
	C971.233826,723.413513 970.333618,722.046326 964.229919,722.045166 
	C913.411438,722.035522 862.592957,722.041809 811.774475,722.043274 
	C809.669495,722.043335 807.564514,722.043335 804.424316,722.043335 
	C807.962952,715.528748 810.963806,709.979919 813.986816,704.443237 
	C822.760315,688.374329 831.426758,672.245117 840.389648,656.282471 
	C843.204468,651.269287 846.825073,646.708496 850.182739,641.610413 
	C856.286133,636.876221 862.096191,632.183960 868.322754,628.131592 
	C879.291931,620.992676 891.199402,616.008362 904.514526,615.996643 
	C991.504517,615.919800 1078.494629,615.966064 1165.484741,616.030151 
	C1168.204224,616.032166 1170.923218,616.665222 1174.716187,617.137939 
	C1170.512329,625.565430 1166.710571,633.033447 1163.045654,640.568054 
	C1156.835449,653.335632 1150.750610,666.164185 1144.541382,678.932251 
	C1137.240845,693.944885 1129.855225,708.916199 1122.522583,723.913330 
	C1115.150146,738.991760 1107.898560,754.130249 1100.407104,769.149170 
	C1093.105469,783.787537 1085.468018,798.258362 1078.169800,812.898376 
	C1073.599854,822.065735 1069.481567,831.457214 1064.986450,840.663147 
	C1058.617920,853.706055 1052.737549,867.054321 1045.367554,879.514465 
	C1041.401978,886.219055 1035.229004,891.887329 1029.205200,897.031494 
	C1022.875793,902.436646 1016.057983,907.895325 1008.505493,911.086914 
	C998.711914,915.225525 988.142517,918.577271 977.624573,919.763550 
	C940.240784,923.979980 902.637573,921.796814 865.124939,921.935852 
	C792.710571,922.204163 720.294495,922.018311 647.879150,922.020752 
	C645.420105,922.020813 642.961060,922.020752 639.717957,922.020752 
	C640.653992,919.132996 641.341431,917.012085 642.092590,914.520020 
z"/>
<path fill="#FDFDFD" opacity="1.000000" stroke="none" 
	d="
M1157.568359,452.515686 
	C1157.528687,452.531555 1157.601929,452.606873 1157.643555,452.593323 
	C1157.685181,452.579803 1157.607910,452.499786 1157.568359,452.515686 
z"/>
</svg>